<?xml version="1.0" standalone="no"?>
<!DOCTYPE svg PUBLIC "-//W3C//DTD SVG 20010904//EN"
 "http://www.w3.org/TR/2001/REC-SVG-20010904/DTD/svg10.dtd">
<svg version="1.0" xmlns="http://www.w3.org/2000/svg"
 width="221.000000pt" height="221.000000pt" viewBox="0 0 221.000000 221.000000"
 preserveAspectRatio="xMidYMid meet">
<metadata>
Created by potrace 1.11, written by Peter Selinger 2001-2013
</metadata>
<g transform="translate(0.000000,221.000000) scale(0.100000,-0.100000)"
fill="#000000" stroke="none">
<path d="M520 2136 c0 -2 -13 -41 -29 -87 -26 -74 -47 -142 -58 -189 -2 -8 -6
-42 -9 -75 -4 -33 -8 -62 -10 -64 -5 -5 -27 -11 -59 -15 -19 -3 -20 -10 -19
-117 1 -105 12 -348 17 -372 1 -5 -13 -14 -30 -19 -29 -7 -33 -13 -34 -43 -2
-61 -4 -63 -40 -70 -13 -3 -37 -8 -54 -11 -16 -4 -39 -8 -50 -9 -11 -2 -21 -4
-22 -5 -2 -2 -7 -3 -13 -4 -5 0 -9 -5 -9 -11 2 -14 50 -76 73 -96 18 -15 17
-18 -33 -92 -50 -75 -66 -112 -38 -88 8 6 16 9 18 6 3 -2 22 0 44 6 22 5 56
12 75 15 19 3 46 7 60 10 14 2 45 7 70 10 25 3 53 10 62 15 13 7 18 4 24 -14
8 -28 76 -170 84 -177 4 -3 17 -24 30 -47 13 -24 27 -43 32 -43 4 0 7 -4 5 -8
-7 -23 239 -292 268 -292 4 0 16 -11 26 -24 11 -14 45 -40 75 -58 31 -18 69
-41 85 -50 15 -9 37 -15 48 -13 47 9 199 110 252 167 9 10 22 18 29 18 7 0 11
3 8 6 -4 3 12 22 35 42 23 20 46 43 50 50 4 7 18 22 30 35 13 12 38 45 57 72
19 28 37 52 40 55 19 17 130 224 135 250 2 15 24 43 25 32 0 -8 10 -13 23 -12
12 1 24 1 27 0 3 -1 16 -3 30 -5 37 -4 98 -15 155 -26 28 -5 60 -11 73 -14 12
-2 27 -7 32 -10 21 -13 8 15 -40 86 -27 41 -50 76 -50 79 0 3 16 23 35 45 19
22 39 45 45 52 17 21 11 33 -17 35 -34 1 -43 3 -63 11 -8 3 -33 8 -55 11 -22
3 -41 5 -43 6 -1 0 -1 3 -1 8 1 4 0 12 -1 17 -1 6 -3 21 -5 35 -1 14 -3 31 -3
38 -1 7 -8 12 -14 11 -39 -5 -45 1 -42 39 6 99 16 296 18 374 l3 87 -31 7
c-17 5 -35 8 -41 8 -5 1 -10 15 -12 31 -4 71 -15 130 -35 193 -11 37 -21 72
-23 77 -2 9 -9 28 -36 98 -10 23 -32 40 -27 20 8 -32 -32 -173 -75 -268 -40
-87 -50 -97 -84 -91 -30 5 -133 39 -173 57 -14 7 -38 18 -55 25 -16 7 -64 29
-106 48 l-77 36 -71 -36 c-96 -48 -288 -123 -332 -130 l-36 -6 -39 78 c-21 44
-39 81 -39 84 -1 3 -8 30 -17 60 -17 54 -26 98 -27 133 -1 13 -21 27 -21 13z"/>
</g>
</svg>
